<svg xmlns="http://www.w3.org/2000/svg"  viewBox="0 0 96 96" width="96px" height="96px"><path fill="#0fd2ff" d="M69.905,44.748c-1.307,0-2.89-0.377-4.735-1.469c-1.195-0.707-1.72-2.113-1.363-3.39 c-1.008,0.279-2.135,0.024-2.928-0.769l-3.805-3.805c-0.629-0.58-3.226-2.994-4.142-4.175c-2.547-3.285-1.997-5.98-1.443-7.294 c1.069-2.535,3.863-4.293,7.474-4.701c4.581-0.525,10.197,1.389,13.35,4.541c3.151,3.15,5.062,8.765,4.542,13.35 c-0.387,3.416-1.861,5.925-4.149,7.063C71.993,44.456,71.056,44.748,69.905,44.748z M66.7,37.697c0.519,0,1.045,0.135,1.524,0.418 c1.155,0.683,1.718,0.657,1.807,0.614c0.197-0.098,0.687-0.83,0.861-2.368c0.353-3.112-1.19-6.8-2.822-8.432 c-1.632-1.632-5.32-3.172-8.432-2.822c-1.771,0.201-2.557,0.895-2.622,1.073c-0.011,0.073,0.063,0.519,0.656,1.283 c0.419,0.54,2.148,2.227,3.509,3.479c0.031,0.028,0.061,0.058,0.09,0.087l3.849,3.849c0.793,0.793,1.05,1.92,0.769,2.929 C66.153,37.734,66.425,37.697,66.7,37.697z" opacity=".3"/><path fill="#0fd2ff" d="M69.907,43.745c-1.148,0-2.558-0.339-4.228-1.326c-0.951-0.563-1.266-1.789-0.703-2.74 c0.562-0.95,1.79-1.264,2.739-0.703c0.694,0.41,1.974,1.04,2.762,0.649c0.688-0.343,1.228-1.55,1.409-3.151 c0.392-3.453-1.273-7.415-3.109-9.251c-1.836-1.835-5.796-3.5-9.251-3.108c-1.684,0.19-3.094,0.88-3.43,1.677 c-0.302,0.716,0.363,1.739,0.787,2.286c0.532,0.686,2.504,2.573,3.622,3.603l3.909,3.906c0.781,0.781,0.781,2.047,0,2.828 c-0.78,0.781-2.048,0.781-2.828,0l-3.849-3.849c-0.261-0.237-3.104-2.863-4.015-4.037c-2.123-2.737-1.885-4.933-1.312-6.292 c0.927-2.198,3.418-3.729,6.665-4.097c4.304-0.489,9.576,1.3,12.53,4.255c2.954,2.953,4.744,8.223,4.255,12.53 c-0.348,3.067-1.626,5.298-3.601,6.281C71.664,43.502,70.879,43.745,69.907,43.745z" opacity=".3"/><path fill="#0fd2ff" d="M69.898,42.753c-1.123,0-2.364-0.398-3.71-1.195c-0.475-0.281-0.633-0.895-0.352-1.369 c0.282-0.475,0.893-0.633,1.37-0.352c1.061,0.627,2.567,1.257,3.716,0.684c1.018-0.507,1.731-1.94,1.957-3.934 c0.388-3.419-1.072-7.748-3.396-10.071c-2.324-2.324-6.655-3.777-10.071-3.396c-2.09,0.237-3.753,1.133-4.238,2.282 c-0.381,0.904-0.073,2.01,0.918,3.287c0.642,0.827,2.914,2.97,3.736,3.726l3.878,3.878c0.391,0.391,0.391,1.023,0,1.414 s-1.023,0.391-1.414,0l-3.849-3.849c-0.285-0.261-3.071-2.833-3.932-3.942c-1.827-2.356-1.65-4.178-1.181-5.291 c0.785-1.86,2.974-3.165,5.856-3.491c4.022-0.462,8.953,1.211,11.71,3.968c2.756,2.756,4.425,7.681,3.969,11.71 c-0.308,2.72-1.393,4.672-3.053,5.499C71.221,42.605,70.582,42.753,69.898,42.753z"/><g><path fill="#e0e722" d="M22.984,85.499c-2.812,0-5.324-1.679-6.4-4.276c-1.076-2.599-0.487-5.563,1.502-7.551 l0.6-0.601c-1.092-0.044-2.125-0.688-2.618-1.743c-2.754-5.897,4.937-12.928,13.079-20.37c2.752-2.517,5.352-4.893,6.699-6.558 c1.077-1.332,0.987-2.351,0.569-5.102c-0.265-1.739-0.594-3.905-0.407-6.514C36.94,19.776,46.518,10.63,59.841,10.026 c0.076-0.004,0.153-0.003,0.229-0.003c10.628,0,18.951,5.029,22.844,13.81c4.271,9.634,2.354,22.131-4.561,29.717 c-6.079,6.67-14.709,8.608-24.328,5.473c-2.423,0.691-9.456,8.077-13.698,12.532c-8.34,8.759-13.25,13.725-17.18,13.939 C23.094,85.497,23.039,85.499,22.984,85.499z M38,55c0.768,0,1.536,0.293,2.121,0.879c1.172,1.171,1.172,3.071,0,4.242 L22.328,77.914c-0.362,0.362-0.309,0.751-0.201,1.012c0.1,0.24,0.308,0.523,0.739,0.567c2.11-0.517,8.727-7.466,13.117-12.076 c9.854-10.349,15.198-15.672,19.64-14.187c9.424,3.175,15.152-0.272,18.297-3.723c5.298-5.813,6.808-15.806,3.51-23.243 c-2.93-6.606-9.092-10.241-17.358-10.241c-0.008,0-0.015,0-0.022,0c-10.259,0.49-17.343,7.232-18.058,17.191 c-0.139,1.939,0.112,3.588,0.354,5.182c0.451,2.962,0.961,6.319-1.835,9.777c-1.631,2.016-4.265,4.424-7.315,7.212 C29.569,58.7,21.08,66.461,21.517,68.825c0.172,0.369,0.263,0.755,0.279,1.137l14.083-14.083C36.464,55.293,37.232,55,38,55z" opacity=".3"/><path fill="#e0e722" d="M22.984,84.499c-2.443,0-4.542-1.402-5.477-3.659c-0.935-2.258-0.443-4.733,1.285-6.461 l17.793-17.793c0.78-0.781,2.048-0.781,2.828,0c0.781,0.781,0.781,2.047,0,2.828L21.621,77.207 c-0.845,0.846-0.534,1.822-0.418,2.102c0.114,0.274,0.57,1.159,1.72,1.189c2.196-0.223,9.163-7.538,13.784-12.392 c9.298-9.765,14.748-15.23,18.597-13.928c7.754,2.61,14.626,1.191,19.355-3.997c5.641-6.188,7.19-16.417,3.685-24.322 c-3.1-6.989-9.587-10.836-18.271-10.836c-0.03,0-0.059,0-0.09,0c-10.748,0.488-18.234,7.602-18.988,18.119 c-0.147,2.052,0.112,3.756,0.363,5.404c0.44,2.893,0.895,5.883-1.625,8.998c-1.583,1.957-4.318,4.457-7.213,7.104 c-4.585,4.191-13.122,11.995-11.922,14.563c0.467,1.001,0.035,2.191-0.966,2.659c-1,0.465-2.191,0.034-2.658-0.966 c-2.443-5.231,5.33-12.338,12.847-19.21c2.781-2.541,5.407-4.942,6.801-6.666c1.353-1.672,1.217-3.011,0.78-5.881 c-0.271-1.778-0.577-3.795-0.398-6.292c0.909-12.673,9.89-21.243,22.882-21.831c0.038,0,0.076,0,0.114,0 c14.052,0,19.81,8.272,22,13.213c4.118,9.288,2.274,21.332-4.385,28.638c-5.862,6.433-14.241,8.241-23.587,5.094 c-0.008,0-0.017,0-0.025,0c-2.119,0-9.801,8.067-14.399,12.896c-7.927,8.324-12.965,13.437-16.51,13.631 C23.057,84.498,23.021,84.499,22.984,84.499z" opacity=".3"/><path fill="#e0e722" d="M23.035,83.497c-2.084,0.001-3.827-1.165-4.604-3.04c-0.777-1.877-0.368-3.935,1.068-5.371 l17.793-17.793c0.391-0.391,1.023-0.391,1.414,0s0.391,1.023,0,1.414L20.914,76.5c-1.02,1.021-0.997,2.317-0.635,3.191 s1.263,1.808,2.705,1.808c2.482-0.138,8.839-6.813,14.447-12.703c8.784-9.223,14.35-14.74,17.553-13.67 c8.149,2.744,15.4,1.228,20.413-4.271c5.895-6.468,7.519-17.15,3.86-25.401c-3.27-7.374-10.081-11.431-19.185-11.431 c-0.031,0-0.063,0-0.094,0c-11.33,0.514-19.19,7.991-19.982,19.048c-0.155,2.163,0.125,4.003,0.372,5.626 c0.445,2.923,0.829,5.447-1.414,8.219c-1.536,1.899-4.243,4.374-7.109,6.994c-5.767,5.271-13.664,12.49-12.153,15.726 c0.233,0.5,0.017,1.096-0.483,1.329c-0.502,0.231-1.095,0.018-1.33-0.483c-2.132-4.565,5.365-11.42,12.616-18.048 c2.809-2.567,5.462-4.993,6.904-6.775c1.687-2.086,1.41-3.905,0.991-6.66c-0.263-1.727-0.561-3.685-0.39-6.069 c0.87-12.135,9.478-20.341,21.929-20.904c0.035,0,0.07,0,0.105,0c9.982,0,17.44,4.479,21.05,12.619 c3.965,8.942,2.194,20.532-4.21,27.559c-5.58,6.122-13.58,7.834-22.529,4.819c-2.225-0.726-9.88,7.287-15.467,13.154 c-7.785,8.176-12.736,13.151-15.841,13.321C23.038,83.497,23.036,83.497,23.035,83.497z"/></g></svg>